# xmcd
#
# Track frame offsets:
#	150
#	18752
#	34504
#	53706
#	71033
#	84235
#	98637
#	117164
#	130966
#	143643
#	158420
#	174697
#	190524
#	204926
#	222403
#	242655
#
# Disc length: 3483 seconds
#
# Revision: 3
# Processed by: cddbd v1.5.1PL0 Copyright (c) Steve Scherf et al.
# Submitted via: audiograbber 1.83.01
#
DISCID=c80d9910
DTITLE=Various Artist - Party Tyme Karaoke Country Male
DYEAR=2003
DGENRE=Karaoke
TTITLE0=Garth Brroks - Two Pina Coladas
TTITLE1=Tim McGraw - I Like It, I Love It
TTITLE2=Marc Chestnut - I Don't Want To Miss A Thing
TTITLE3=Neal McCoy - The Shake
TTITLE4=Alan Jackson - Little Bitty
TTITLE5=Clay Walker - Then What
TTITLE6=Brooks and Dunn  - If You See Him - If You See Her
TTITLE7=Joe Diffie - Texas Size Heartache
TTITLE8=Garth Brooks - Longneck Bottle
TTITLE9=Vince Gill - A Little More Love
TTITLE10=Wade Hayes - The Day That She Left Tulsa
TTITLE11=Tracy Byrd - I'm From The Country
TTITLE12=Alan Jackson - Who's Cheatin Who
TTITLE13=George Strait - I Just Wanna Dance With You
TTITLE14=John Michael Montgomery - I Swear
TTITLE15=Collin Raye - On The Verge
EXTD=
EXTT0=
EXTT1=
EXTT2=
EXTT3=
EXTT4=
EXTT5=
EXTT6=
EXTT7=
EXTT8=
EXTT9=
EXTT10=
EXTT11=
EXTT12=
EXTT13=
EXTT14=
EXTT15=
PLAYORDER=
